<svg id="alfa" xmlns="http://www.w3.org/2000/svg" viewBox="0 0 39 59.9"><path d="M19.17 0c4.009 0 5.44 2.864 6.3 5.728.573 1.146 11.17 30.36 11.456 31.218 0 .287 0 .573-.286.86-.287 0-6.015 2.29-6.301 2.29-.286 0-.573 0-.86-.286 0-.286-2.29-6.587-2.577-7.446H11.15c-.287.573-2.578 7.16-2.578 7.446 0 .287-.573.573-.86.287-.286 0-5.727-2.292-6.3-2.292-.286 0-.573-.572-.286-.859.286-1.145 10.883-29.5 11.456-31.218C13.727 2.864 15.159 0 19.169 0M.553 51.84c-.287 0-.573.286-.573.572v6.874c0 .286.286.573.573.573h37.232c.287 0 .573-.287.573-.573v-6.874c0-.286-.286-.573-.573-.573H.553M19.169 9.451l-5.442 16.04h10.597L19.17 9.45z" fill="#ee2a23"/></svg>
