
<svg id="easypay" xmlns="http://www.w3.org/2000/svg" viewBox="0 0 89.6 35.8"><path d="M2.2 23.4c-.1.6 0 1.9.3 2.6.5 1.2 1.5 1.8 2.8 1.8 1.5 0 2.6-.5 3.3-1l.3 1.8c-.9.6-2.4 1.1-4.1 1.1-3.3 0-4.7-2.5-4.7-5.5 0-4.2 2.8-8.8 6.8-8.8 2.4 0 3.7 1.6 3.7 3.5-.2 3.6-3.8 4.6-8.4 4.5zm4.3-6.2c-2 0-3.5 2.2-4.1 4.4 3.3 0 6-.5 6-2.6 0-1.2-.8-1.8-1.9-1.8zM21 23.1c-.4 2.4-.6 4.8-.5 6.4h-2c0-.8.1-2.1.3-3.6h-.1c-1.4 2.8-3.1 3.9-4.8 3.9-2.2 0-3.6-1.9-3.6-4.6 0-4.8 3.2-9.8 8.6-9.8 1.2 0 2.5.2 3.3.5L21 23.1zm-2.6-5.9c-3.2 0-5.8 3.7-5.9 7.5 0 1.5.5 3 2.1 3 1.8 0 3.9-2.6 4.5-6.2l.7-4.2c-.2 0-.7-.1-1.4-.1zm11.7.6c-.4-.3-1.2-.6-2.2-.6-1.3 0-2.2.9-2.2 2.1 0 1 .6 1.6 1.7 2.3 1.4.9 2.3 2.1 2.3 3.6 0 2.9-2.1 4.5-4.8 4.5-1.3 0-2.5-.5-3.1-.9l.6-1.7c.6.4 1.7.9 2.7.9 1.4 0 2.4-1 2.4-2.2 0-1.1-.4-1.7-1.7-2.5-1.4-.9-2.2-2.1-2.2-3.5 0-2.4 1.9-4.3 4.5-4.3 1.1 0 2.1.3 2.6.7l-.6 1.6zm7.3 8.3c-1.3 3-2.6 5.4-4.3 7.2-1.4 1.6-2.9 2.2-3.6 2.4l-.5-2c.5-.2 1.4-.6 2.3-1.3.8-.7 1.7-1.8 2.4-3.2.1-.2.1-.4.1-.6l-2.5-12.9h2.2l1.2 7.4c.3 1.6.4 2.6.6 3.6h.1c.3-.9.7-1.8 1.3-3.4l3.2-7.7H42l-4.6 10.5zM58.9 29.7c-1.3 0-2.2-.3-2.7-.6h-.1l-1 5.9H53l2.5-14.5c.3-1.7.5-3.5.7-4.9h1.9l-.4 2.6h.1c1.1-1.8 2.8-2.9 4.4-2.9 2.7 0 3.8 2.4 3.8 5 .1 4.9-3 9.4-7.1 9.4zm2.6-12.4c-1.7 0-3.8 2.1-4.4 6l-.6 3.8c.5.5 1.4.8 2.4.8 2.7 0 5-3.8 5-7.4 0-1.5-.6-3.2-2.4-3.2zM77 23.1c-.4 2.4-.6 4.8-.5 6.4h-2c0-.8.1-2.1.3-3.6h-.1c-1.4 2.8-3 3.9-4.8 3.9-2.2 0-3.6-1.9-3.6-4.6 0-4.8 3.2-9.8 8.6-9.8 1.2 0 2.5.2 3.3.5L77 23.1zm-2.6-5.9c-3.2 0-5.8 3.7-5.8 7.5 0 1.5.5 3 2.1 3 1.8 0 3.9-2.6 4.5-6.2l.7-4.2c-.3 0-.8-.1-1.5-.1zM85 26.1c-1.3 3-2.6 5.4-4.3 7.2-1.4 1.6-2.9 2.2-3.6 2.4l-.5-2c.5-.2 1.4-.6 2.3-1.3.8-.7 1.7-1.8 2.4-3.2.1-.2.1-.4.1-.6l-2.5-12.9h2.2l1.2 7.4c.3 1.6.4 2.6.6 3.6h.1c.3-.9.7-1.8 1.3-3.4l3.1-7.7h2.2L85 26.1z"/><path d="M46.7 0c2 0 3.6 1.6 3.6 3.6s-1.6 3.6-3.6 3.6-3.6-1.6-3.6-3.6S44.8 0 46.7 0" fill="#f8a81b"/><path d="M37.1 32.4s5.6-9.2 6.6-13.5 1.1-6.6-2.8-7c-4-.4-8.5 0-8.5 0s6.3-4 14.6-3.7c8.4.2 13.2 3.7 13.2 3.7s-1.8.7-4.7.9c-2.9.3-4 .9-3.8 4.2s1.4 5.6 1.4 5.6-4.7-3.1-7.6 0c-2.9 3.1-3.5 4.5-5.2 6.5-1.6 2-3.2 3.3-3.2 3.3" fill="#136bb5"/></svg>