<svg version="1.1" id="liqpay" xmlns="http://www.w3.org/2000/svg" x="0" y="0" viewBox="0 0 1070 220" xml:space="preserve"><style>.liqpay-st0{fill:#7ab72b}</style><g id="Personal"><g id="Site_Personal-Copy" transform="translate(-60 -12)"><g id="Header"><g id="logo_liqpay" transform="translate(60 12)"><path id="Shape" class="liqpay-st0" d="M869.5 17.7l74 85.7-74 85.7 20.6 17.7 89.2-103.4L890.1 0z"/><path id="Shape_1_" class="liqpay-st0" d="M959.5 17.7l73.9 85.7-73.9 85.7 20.5 17.7 89.2-103.4L980 0z"/><path id="Shape_2_" class="liqpay-st0" d="M92.5 182.7c0 1.8-.1 3.4-.3 4.6-.2 1.2-.5 2.3-.9 3.2-.4.9-.9 1.5-1.5 1.9-.6.4-1.3.6-2.1.6H8.9c-2.1 0-4.1-.7-6-2.1C1 189.5.1 187 .1 183.4V18.8c0-.7.2-1.4.6-1.9.4-.6 1-1 1.9-1.3.9-.3 2.2-.6 3.7-.8 1.6-.2 3.4-.3 5.6-.3 2.3 0 4.2.1 5.7.3 1.5.2 2.7.5 3.6.8.9.3 1.6.8 1.9 1.3.4.6.6 1.2.6 1.9v153.7h63.8c.8 0 1.5.2 2.1.6.6.4 1.1 1 1.5 1.8.4.8.7 1.8.9 3.1.4 1.3.5 2.9.5 4.7z"/><path id="Shape_3_" class="liqpay-st0" d="M142.3 189.4c0 .7-.2 1.4-.6 1.9-.4.6-1 1-1.9 1.3-.9.3-2.1.6-3.6.8-1.5.2-3.4.3-5.7.3-2.2 0-4.1-.1-5.6-.3-1.6-.2-2.8-.5-3.7-.8-.9-.3-1.6-.8-1.9-1.3-.4-.6-.6-1.2-.6-1.9V18.8c0-.7.2-1.4.6-1.9.4-.6 1.1-1 2.1-1.3 1-.3 2.2-.6 3.7-.8 1.5-.2 3.3-.3 5.4-.3 2.3 0 4.2.1 5.7.3 1.5.2 2.7.5 3.6.8.9.3 1.6.8 1.9 1.3.4.6.6 1.2.6 1.9v170.6z"/><path id="Shape_4_" class="liqpay-st0" d="M360.6 208.7c0 2.1-.1 3.9-.3 5.3-.2 1.4-.6 2.5-1 3.3-.5.8-1 1.3-1.5 1.6-.6.3-1.1.4-1.7.4-1.8 0-4.8-.8-8.9-2.3-4.1-1.5-8.8-3.7-14.1-6.6-5.3-2.9-11-6.4-17.1-10.5-6.1-4.1-11.9-8.9-17.6-14.4-4.5 2.7-10.2 5.1-17.1 7.1-6.9 2-14.9 3-23.9 3-13.4 0-25-2-34.7-5.9-9.8-3.9-17.8-9.7-24.2-17.3-6.4-7.6-11.1-17.1-14.2-28.4s-4.7-24.3-4.7-38.9c0-14.1 1.7-26.9 5.1-38.3 3.4-11.4 8.5-21.1 15.3-29.1 6.8-8 15.3-14.2 25.5-18.5 10.2-4.3 22.1-6.5 35.6-6.5 12.7 0 24 2 33.6 5.9 9.7 3.9 17.8 9.7 24.4 17.2 6.6 7.6 11.5 16.9 14.8 28 3.3 11.1 5 23.8 5 38.2 0 7.4-.4 14.5-1.3 21.3-.9 6.8-2.2 13.2-4.1 19.2-1.9 6-4.2 11.6-7.1 16.8-2.8 5.1-6.2 9.8-10 13.9 6.7 5.5 12.6 9.8 17.6 12.8 5 3.1 9.2 5.4 12.5 6.9 3.3 1.6 5.9 2.7 7.7 3.4 1.8.7 3.2 1.5 4.1 2.3.9.9 1.6 2.1 1.9 3.7.2 1.6.4 3.7.4 6.4zm-46.8-105.1c0-10.1-.9-19.4-2.7-28-1.8-8.6-4.8-16.1-8.9-22.5-4.2-6.4-9.7-11.3-16.7-14.9-7-3.6-15.6-5.4-25.9-5.4-10.3 0-18.9 1.9-25.9 5.7-7 3.8-12.6 8.9-17 15.4s-7.5 13.9-9.4 22.5-2.8 17.5-2.8 27.1c0 10.4.9 20 2.6 28.8 1.7 8.7 4.7 16.3 8.8 22.7 4.1 6.4 9.7 11.4 16.6 14.9 6.9 3.5 15.6 5.3 26.1 5.3 10.4 0 19.1-1.9 26.1-5.8s12.7-9 17.1-15.6c4.3-6.5 7.4-14.2 9.2-22.8 1.9-8.7 2.8-17.8 2.8-27.4z"/><path id="Shape_5_" class="liqpay-st0" d="M488.5 67.3c0 8.9-1.5 16.9-4.4 24-2.9 7.1-7.1 13.2-12.6 18.3-5.5 5-12.2 8.9-20.1 11.7-7.9 2.7-17.4 4.1-28.4 4.1h-20.2v64c0 .7-.2 1.4-.6 1.9-.4.6-1.1 1-1.9 1.3-.9.3-2.1.6-3.6.8-1.5.2-3.4.3-5.7.3-2.3 0-4.2-.1-5.7-.3-1.5-.2-2.7-.5-3.6-.8-.9-.3-1.6-.8-1.9-1.3-.4-.6-.6-1.2-.6-1.9v-164c0-3.7 1-6.3 2.9-7.8 1.9-1.6 4.1-2.3 6.5-2.3h38.1c3.9 0 7.5.2 11.1.5 3.5.3 7.7 1 12.5 2.1s9.7 3 14.7 5.9c5 2.9 9.2 6.4 12.7 10.6 3.5 4.2 6.2 9.1 8 14.6 1.9 5.5 2.8 11.6 2.8 18.3zm-24.9 1.9c0-7.2-1.4-13.3-4.1-18.1-2.7-4.9-6.1-8.5-10-10.8-4-2.4-8.1-3.9-12.4-4.5-4.3-.6-8.4-1-12.5-1h-21.9v71.3H424c7.2 0 13.1-.9 17.8-2.7 4.7-1.8 8.7-4.4 11.9-7.6 3.2-3.2 5.6-7.1 7.3-11.7 1.8-4.6 2.6-9.5 2.6-14.9z"/><path id="Shape_6_" class="liqpay-st0" d="M658 184.6c.7 2 1.1 3.6 1.2 4.9 0 1.2-.3 2.2-1 2.8-.7.6-1.9 1-3.6 1.2-1.7.2-4 .3-6.8.3s-5.1-.1-6.8-.2c-1.7-.1-3-.4-3.9-.7-.9-.3-1.5-.8-1.9-1.3-.4-.6-.8-1.2-1.2-2.1l-15.3-43.3h-74L530.1 189c-.3.8-.6 1.5-1.1 2.1-.5.6-1.1 1.1-2 1.5s-2.1.7-3.7.9c-1.6.2-3.7.3-6.3.3-2.7 0-4.8-.1-6.5-.3-1.7-.2-2.9-.7-3.6-1.3-.7-.6-1-1.6-1-2.8 0-1.2.4-2.9 1.2-4.9l59.7-165.1c.4-1 .8-1.8 1.4-2.5.6-.6 1.5-1.1 2.6-1.5 1.1-.4 2.6-.6 4.4-.8 1.8-.1 4.1-.2 6.8-.2 2.9 0 5.4.1 7.3.2 1.9.1 3.5.4 4.7.8 1.2.4 2.1.9 2.8 1.6.6.7 1.1 1.5 1.5 2.5L658 184.6zM581.4 38.9h-.1l-30.7 88.6h61.9l-31.1-88.6z"/><path id="Shape_7_" class="liqpay-st0" d="M744.4 123.9v65.5c0 .7-.2 1.4-.5 1.9-.4.6-1 1-1.9 1.3-.9.3-2.1.6-3.7.8-1.6.2-3.4.3-5.6.3-2.3 0-4.2-.1-5.7-.3-1.5-.2-2.7-.5-3.7-.8-1-.3-1.6-.8-2-1.3-.4-.6-.5-1.2-.5-1.9v-65.5L670.4 23.6c-1-2.1-1.6-3.8-1.9-4.9-.2-1.2 0-2.1.7-2.7.7-.6 1.9-1 3.7-1.2 1.8-.2 4.2-.3 7.2-.3 2.8 0 5 .1 6.7.3 1.7.2 3 .4 4.1.8 1 .3 1.8.8 2.3 1.4.5.6 1 1.4 1.4 2.3l24.6 51.1c2.3 4.9 4.6 9.9 6.8 15.2 2.3 5.3 4.6 10.7 7 16.1h.3c2.1-5.2 4.3-10.4 6.5-15.6 2.2-5.2 4.5-10.3 6.8-15.3l24.8-51.4c.3-.9.7-1.7 1.2-2.3.5-.6 1.2-1.1 2.1-1.4.9-.3 2.1-.6 3.6-.8 1.6-.2 3.5-.3 5.9-.3 3.3 0 5.9.1 7.8.3 1.9.2 3.2.7 3.9 1.3.7.6 1 1.6.8 2.7-.2 1.2-.8 2.8-1.9 4.8l-50.4 100.2z"/></g></g></g></g></svg>