<svg id="mono" xmlns="http://www.w3.org/2000/svg" viewBox="0 0 114.7 16.7"><path d="M18 16.2V7.8c0-2.4-1.3-3.5-3.4-3.5-1.8 0-3.3 1.1-4 2.1-.4-1.3-1.5-2.1-3.2-2.1-1.8 0-3.4 1.1-3.8 1.8V4.6h-3v11.6h3V8.4C4 7.8 4.9 7 6 7c1.2 0 1.7.8 1.7 1.8v7.3h3.1V8.4c.4-.6 1.3-1.4 2.4-1.4 1.2 0 1.7.8 1.7 1.8v7.3H18zm8.3.3c-3.8 0-6.1-2.8-6.1-6.1s2.3-6.1 6.1-6.1 6.1 2.8 6.1 6.1c.1 3.3-2.2 6.1-6.1 6.1zm0-2.7c1.9 0 3-1.6 3-3.4 0-1.8-1.1-3.4-3-3.4s-3 1.6-3 3.4c.1 1.8 1.1 3.4 3 3.4zm19.3 2.4V8c0-2.3-1.2-3.7-3.8-3.7-1.9 0-3.3.9-4.1 1.8V4.6h-3v11.6h3V8.4c.6-.7 1.5-1.4 2.7-1.4 1.3 0 2.1.6 2.1 2.2v7h3.1zm8.4.3c-3.8 0-6.1-2.8-6.1-6.1s2.3-6.1 6.1-6.1 6.1 2.8 6.1 6.1c.1 3.3-2.3 6.1-6.1 6.1zm0-2.7c1.9 0 3-1.6 3-3.4C57 8.6 55.9 7 54 7s-3 1.6-3 3.4c.1 1.8 1.1 3.4 3 3.4zm11.5-1.3c.5.7 1.6 1.3 2.6 1.3 1.8 0 3-1.3 3-3.4S69.8 7 68.1 7c-1 0-2.1.6-2.6 1.3v4.2zm0 3.7h-3V.2h3v5.9c.9-1.2 2.2-1.8 3.6-1.8 3 0 5.1 2.3 5.1 6.1 0 3.9-2.2 6.1-5.1 6.1-1.4 0-2.7-.6-3.6-1.8v1.5zm21 0h-3V15c-.8.9-2.2 1.5-3.7 1.5-1.8 0-4-1.2-4-3.8 0-2.7 2.2-3.7 4-3.7 1.5 0 2.9.5 3.7 1.4V8.8c0-1.2-1-1.9-2.5-1.9-1.2 0-2.4.5-3.4 1.4l-1.2-2c1.4-1.2 3.2-1.8 5.1-1.8 2.6 0 5.1 1.1 5.1 4.4l-.1 7.3zM81 14.4c1 0 1.9-.3 2.4-1V12c-.5-.7-1.5-1-2.4-1-1.2 0-2.2.6-2.2 1.8 0 1 1 1.6 2.2 1.6zm19.4 1.8V8c0-2.3-1.2-3.7-3.8-3.7-1.9 0-3.3.9-4.1 1.8V4.6h-3v11.6h3V8.4C93.1 7.7 94 7 95.2 7c1.3 0 2.1.6 2.1 2.2v7h3.1zm14.3 0L110 9.9l4.6-5.3h-3.7l-4.4 5.2V.2h-3v16h3v-3l1.4-1.5 3.1 4.5h3.7z"/></svg>
