<svg version="1.1" id="NP" xmlns="http://www.w3.org/2000/svg" x="0" y="0" viewBox="0 0 76 75" xml:space="preserve"><style>.st0{fill:#ed1c24}</style><g id="layer1" transform="translate(0 -977.362)"><g id="g4203" transform="matrix(.9681 0 0 .96386 77.34 1074.547)"><path id="path3461" class="st0" d="M-17-77.8c.2-.1.6.1.9.5L-2-63.5c.8.8.8 2.1 0 2.7l-14.1 14c-.3.4-.6.5-.9.4-.2-.1-.4-.5-.4-1v-29.5c.1-.5.2-.8.4-.9z"/><path id="path3463" class="st0" d="M-41.1-100.8h1l1 .4 14.5 14.5c.6.8.4 1.4-.6 1.4h-6c-1 0-1.9.8-1.9 1.9v10.7c0 1-.8 1.9-2.1 1.9h-10.6c-1 0-1.9-.8-1.9-1.9v-10.7c0-1-.8-1.9-1.9-1.9H-56c-1 0-1.3-.6-.6-1.4l14.6-14.5.9-.4z"/><path id="path3465" class="st0" d="M-63.9-78.1c.3.1.4.5.4 1V-47c0 .5-.2.8-.4.9-.3.1-.6 0-1-.3l-14.3-14.5c-.8-.6-.8-1.9 0-2.7l14.3-14.2c.4-.3.8-.4 1-.3z"/><path id="path3467" class="st0" d="M-45.8-54.4h10.6c1.3 0 2.1.8 2.1 1.9v11.4c0 1.2.8 2.1 1.9 2.1h5.6c1 0 1.5.6.6 1.2l-14.1 14.2c-.4.4-.9.6-1.5.6-.5 0-1-.2-1.5-.6l-14.1-14.2c-.8-.6-.4-1.2.6-1.2h6c1 0 1.9-.8 1.9-2.1v-11.4c0-1.1.9-1.9 1.9-1.9z"/></g></g></svg>