<?xml version="1.0" encoding="utf-8"?>
<!-- Generator: Adobe Illustrator 22.0.0, SVG Export Plug-In . SVG Version: 6.00 Build 0)  -->
<svg version="1.1" id="Layer_1" xmlns="http://www.w3.org/2000/svg" xmlns:xlink="http://www.w3.org/1999/xlink" x="0px" y="0px"
	 viewBox="0 0 61.8 58.8" style="enable-background:new 0 0 61.8 58.8;" xml:space="preserve">
<path d="M25.6,4.7c0.9-1.4,0.5-3.2-0.9-4.1c-1.4-0.9-3.2-0.5-4.1,0.9c0,0.1-0.1,0.1-0.1,0.2L9.3,20.1H0v6h4v21c0,6.1,4.9,11,11,11
	h32c6.1,0,11-4.9,11-11v-21h4v-6h-9.3L41.6,1.6c-0.8-1.4-2.6-2-4.1-1.1c-1.4,0.8-2,2.6-1.1,4.1c0,0.1,0.1,0.1,0.1,0.2l9.3,15.5H16.3
	L25.6,4.7z M11,26.1h9v10H10v-10H11z M26,26.1h10v10H26V26.1z M15,52.1c-2.8,0-5-2.2-5-5v-5h10v10H15z M26,52.1v-10h10v10H26z
	 M52,47.1c0,2.8-2.2,5-5,5h-5v-10h10V47.1z M52,36.1H42v-10h10V36.1z"/>
</svg>
