<svg xmlns="http://www.w3.org/2000/svg" viewBox="0 0 96.9 100.3"><path d="M18.6 11.9h59.6v6.2H18.6z"/><circle cx="48.4" cy="15" r="11.3"/><path d="M48.4 29.4c-8 0-14.4-6.5-14.4-14.4S40.4.6 48.4.6 62.7 7.1 62.7 15s-6.4 14.4-14.3 14.4zm0-22.6c-4.5 0-8.2 3.7-8.2 8.2s3.7 8.2 8.2 8.2c4.5 0 8.2-3.7 8.2-8.2s-3.7-8.2-8.2-8.2zM18.6 70.4C8.5 70.4.3 62.2.3 52.1c0-3 .7-5.8 2.1-8.4L18.6 12l16.2 31.7c1.4 2.6 2.1 5.4 2.1 8.4 0 10.1-8.2 18.3-18.3 18.3zm0-44.8l-10.7 21c-.9 1.8-1.4 3.6-1.4 5.6 0 6.7 5.4 12.1 12.1 12.1s12.1-5.4 12.1-12.1c0-1.9-.5-3.8-1.4-5.6l-10.7-21z"/><path d="M32.1 45.1c1.1 2.1 1.7 4.5 1.7 7 0 8.4-6.8 15.2-15.2 15.2S3.5 60.5 3.5 52.1c0-2.5.6-4.9 1.7-7h26.9zM78.2 70.4c-10.1 0-18.3-8.2-18.3-18.3 0-3 .7-5.8 2.1-8.4L78.2 12l16.2 31.7c1.4 2.6 2.1 5.4 2.1 8.4 0 10.1-8.2 18.3-18.3 18.3zm0-44.8l-10.7 21c-.9 1.8-1.4 3.6-1.4 5.6 0 6.7 5.4 12.1 12.1 12.1s12.1-5.4 12.1-12.1c0-1.9-.5-3.8-1.4-5.6l-10.7-21z"/><path d="M91.6 45.1c1.1 2.1 1.7 4.5 1.7 7 0 8.4-6.8 15.2-15.2 15.2-8.4 0-15.2-6.8-15.2-15.2 0-2.5.6-4.9 1.7-7h27z"/><path fill="none" stroke="#000" stroke-width="7" stroke-miterlimit="10" d="M16.8 96.8h62.6"/></svg>
