<?xml version="1.0" encoding="utf-8"?>
<!-- Generator: Adobe Illustrator 22.0.0, SVG Export Plug-In . SVG Version: 6.00 Build 0)  -->
<svg version="1.1" id="Layer_1" xmlns="http://www.w3.org/2000/svg" xmlns:xlink="http://www.w3.org/1999/xlink" x="0px" y="0px"
	 viewBox="0 0 14 14.8" style="enable-background:new 0 0 14 14.8;" xml:space="preserve">
<path d="M12.4,1.4C12.1,1.1,10.6,0,7.3,0c0,0-3.9-0.2-5.8,1.5C0.4,2.6,0,4.1,0,6s-0.1,5.5,3.4,6.5l0,0l0,1.5c0,0,0,0.6,0.4,0.7
	c0.5,0.1,0.8-0.3,1.2-0.8c0.3-0.3,0.6-0.7,0.9-1c2.4,0.2,4.2-0.3,4.4-0.3c0.5-0.2,3.2-0.5,3.6-4.1C14.3,4.8,13.6,2.5,12.4,1.4z
	 M12.8,8.3c-0.4,3-2.6,3.2-3,3.3c-0.2,0.1-1.8,0.5-3.8,0.3c0,0-1.5,1.8-2,2.3c-0.1,0.1-0.2,0.1-0.2,0.1c-0.1,0-0.1-0.1-0.1-0.3
	l0-2.5C0.9,10.7,1,7.7,1.1,6.1s0.3-2.9,1.2-3.8c1.6-1.5,4.9-1.2,4.9-1.2c2.8,0,4.1,0.9,4.4,1.1C12.7,3.1,13.2,5.2,12.8,8.3z
	 M7.5,8.5c0,0,0.3,0,0.4-0.2L8.2,8C8.4,7.8,8.7,7.7,9,7.8c0.4,0.2,1,0.6,1.3,0.9c0.2,0.2,0.3,0.4,0.1,0.7l0,0
	c-0.1,0.3-0.3,0.5-0.6,0.7l0,0c-0.3,0.2-0.6,0.4-0.9,0.2l0,0c-0.6-0.2-2-0.9-2.9-1.6C4.5,7.6,3.4,5.7,3.1,4.6l0,0
	C3,4.3,3.1,4,3.4,3.7l0,0c0.2-0.2,0.5-0.4,0.7-0.6l0,0C4.4,3,4.6,3.1,4.8,3.3C5,3.5,5.4,4,5.7,4.6c0.2,0.3,0.1,0.6-0.1,0.8L5.3,5.6
	C5.1,5.8,5.1,6,5.1,6S5.6,8,7.5,8.5z M10.6,6.8c0.1,0,0.2-0.1,0.2-0.2c0-1.2-0.4-2.2-1.1-2.9C8.9,3,8,2.7,6.9,2.6h0
	c-0.1,0-0.2,0.1-0.2,0.2C6.7,2.9,6.8,3,6.9,3c1,0,1.8,0.3,2.5,1c0.7,0.6,1,1.5,1,2.7C10.4,6.8,10.5,6.8,10.6,6.8L10.6,6.8z M9.6,6.5
	L9.6,6.5c-0.1,0-0.2-0.1-0.2-0.2c0-0.6-0.2-1.2-0.6-1.6C8.5,4.3,7.9,4,7.2,4C7.1,4,7,3.9,7,3.8c0-0.1,0.1-0.2,0.2-0.2
	C8,3.7,8.7,3.9,9.1,4.4c0.5,0.5,0.7,1.1,0.7,1.8C9.8,6.4,9.7,6.5,9.6,6.5z M8.6,6.1C8.5,6.1,8.4,6.1,8.4,6c0-0.6-0.3-0.9-0.9-1
	C7.4,5,7.3,4.9,7.3,4.8c0-0.1,0.1-0.2,0.2-0.2c0.8,0,1.3,0.5,1.3,1.3C8.8,6,8.7,6.1,8.6,6.1L8.6,6.1z"/>
</svg>
